<svg class="diagram-root" style="background: #f5f6f6" xmlns="http://www.w3.org/2000/svg" xmlns:xlink="http://www.w3.org/1999/xlink"><style>.diagram-root { font-family: "Helvetica Neue", sans-serif; font-size: 12px; } .t { overflow: visible; } .t-bg { y: 40; fill: #fff;   } .th { fill: #005aa0;   } .tht { fill: #fff; font-size: 14px;  } .tf { fill: #323c46; overflow: visible; } .tf.pk { fill: #005aa0; font-weight: bold; } .tf.fk { font-weight: bold; } .ty { fill: #adb1b5; font-weight: normal; text-anchor: end; } .r { fill: transparent; stroke: #c3c3c3; stroke-width: 1; } .l { stroke: 1; } .i { fill: #c2c7ce; stroke: #c2c7ce; } .i.ix { fill: #afb3b6; stroke: #000; } .fa { fill: transparent; overflow: visible; } .fa .bg.hover { fill: #f7f7f7; } .c { cy: 12; r: 4; stroke: #d2d2dc; fill: #d2d2dc; } .hr { fill: transparent; stroke: #323c46; stroke-opacity: 0.035; stroke-width: 13; } .dc { stroke: #fa5a3c; fill: #fa5a3c; } .x { stroke: white; stroke-width: 1; } .hl .th { fill: #1b9bff; } .hl .tht {  } .fhl .bg { fill: #e7f4ff; } .fhls .bg {  } .r.hl { stroke: #1b9bff; } .dim { opacity: 0.25; }</style><g class="drawing-wrapper" transform="translate(-131.90999999999997, -103.72) scale(1,1)"><g class="rs"><path d="M 433.82 326.53999999999996 m -1, 0 a 1,1 0 1,0 2,0 a 1,1 0 1,0 -2,0 M 433.82 326.53999999999996 m -0.5, 0 a 0.5,0.5 0 1,0 1,0 a 0.5,0.5 0 1,0 -1,0  M433.82 326.53999999999996 L433.82 326.53999999999996 421.82 326.53999999999996 M 433.82 332.53999999999996 m -1, 0 a 1,1 0 1,0 2,0 a 1,1 0 1,0 -2,0 M 433.82 332.53999999999996 m -0.5, 0 a 0.5,0.5 0 1,0 1,0 a 0.5,0.5 0 1,0 -1,0  M433.82 332.53999999999996 L433.82 332.53999999999996 426.82 326.53999999999996 433.82 320.53999999999996 M 433.82 320.53999999999996 m -1, 0 a 1,1 0 1,0 2,0 a 1,1 0 1,0 -2,0 M 433.82 320.53999999999996 m -0.5, 0 a 0.5,0.5 0 1,0 1,0 a 0.5,0.5 0 1,0 -1,0  M421.82 326.53999999999996 Q 402.79 326.53999999999996, 383.77 272.36 T 345.72 218.18 M 333.72 218.18 m -1, 0 a 1,1 0 1,0 2,0 a 1,1 0 1,0 -2,0 M 333.72 218.18 m -0.5, 0 a 0.5,0.5 0 1,0 1,0 a 0.5,0.5 0 1,0 -1,0  M333.72 218.18 L333.72 218.18 345.72 218.18 M339.72 224.18 L339.72 224.18 339.72 212.18" id="h204939704" class="r"></path><path d="M 311.04 418 m -1, 0 a 1,1 0 1,0 2,0 a 1,1 0 1,0 -2,0 M 311.04 418 m -0.5, 0 a 0.5,0.5 0 1,0 1,0 a 0.5,0.5 0 1,0 -1,0  M311.04 418 L311.04 418 323.04 418 M 311.04 424 m -1, 0 a 1,1 0 1,0 2,0 a 1,1 0 1,0 -2,0 M 311.04 424 m -0.5, 0 a 0.5,0.5 0 1,0 1,0 a 0.5,0.5 0 1,0 -1,0  M311.04 424 L311.04 424 318.04 418 311.04 412 M 311.04 412 m -1, 0 a 1,1 0 1,0 2,0 a 1,1 0 1,0 -2,0 M 311.04 412 m -0.5, 0 a 0.5,0.5 0 1,0 1,0 a 0.5,0.5 0 1,0 -1,0  M323.04 418 Q 347.74 418, 372.43 359.77 T 421.82 301.53999999999996 M 433.82 301.53999999999996 m -1, 0 a 1,1 0 1,0 2,0 a 1,1 0 1,0 -2,0 M 433.82 301.53999999999996 m -0.5, 0 a 0.5,0.5 0 1,0 1,0 a 0.5,0.5 0 1,0 -1,0  M433.82 301.53999999999996 L433.82 301.53999999999996 421.82 301.53999999999996 M427.82 307.53999999999996 L427.82 307.53999999999996 427.82 295.53999999999996" id="h3177548053" class="r"></path><path d="M 704.72 410.63 m -1, 0 a 1,1 0 1,0 2,0 a 1,1 0 1,0 -2,0 M 704.72 410.63 m -0.5, 0 a 0.5,0.5 0 1,0 1,0 a 0.5,0.5 0 1,0 -1,0  M704.72 410.63 L704.72 410.63 692.72 410.63 M 704.72 416.63 m -1, 0 a 1,1 0 1,0 2,0 a 1,1 0 1,0 -2,0 M 704.72 416.63 m -0.5, 0 a 0.5,0.5 0 1,0 1,0 a 0.5,0.5 0 1,0 -1,0  M704.72 416.63 L704.72 416.63 697.72 410.63 704.72 404.63 M 704.72 404.63 m -1, 0 a 1,1 0 1,0 2,0 a 1,1 0 1,0 -2,0 M 704.72 404.63 m -0.5, 0 a 0.5,0.5 0 1,0 1,0 a 0.5,0.5 0 1,0 -1,0  M692.72 410.63 Q 676.29 410.63, 659.85 356.09 T 626.97 301.53999999999996 M 614.97 301.53999999999996 m -1, 0 a 1,1 0 1,0 2,0 a 1,1 0 1,0 -2,0 M 614.97 301.53999999999996 m -0.5, 0 a 0.5,0.5 0 1,0 1,0 a 0.5,0.5 0 1,0 -1,0  M614.97 301.53999999999996 L614.97 301.53999999999996 626.97 301.53999999999996 M620.97 307.53999999999996 L620.97 307.53999999999996 620.97 295.53999999999996" id="h3256119568" class="r"></path><path d="M 873.22 435.63 m -1, 0 a 1,1 0 1,0 2,0 a 1,1 0 1,0 -2,0 M 873.22 435.63 m -0.5, 0 a 0.5,0.5 0 1,0 1,0 a 0.5,0.5 0 1,0 -1,0  M873.22 435.63 L873.22 435.63 885.22 435.63 M 873.22 441.63 m -1, 0 a 1,1 0 1,0 2,0 a 1,1 0 1,0 -2,0 M 873.22 441.63 m -0.5, 0 a 0.5,0.5 0 1,0 1,0 a 0.5,0.5 0 1,0 -1,0  M873.22 441.63 L873.22 441.63 880.22 435.63 873.22 429.63 M 873.22 429.63 m -1, 0 a 1,1 0 1,0 2,0 a 1,1 0 1,0 -2,0 M 873.22 429.63 m -0.5, 0 a 0.5,0.5 0 1,0 1,0 a 0.5,0.5 0 1,0 -1,0  M885.22 435.63 Q 908.46 435.63, 931.7 369.68 T 978.18 303.73 M 990.18 303.73 m -1, 0 a 1,1 0 1,0 2,0 a 1,1 0 1,0 -2,0 M 990.18 303.73 m -0.5, 0 a 0.5,0.5 0 1,0 1,0 a 0.5,0.5 0 1,0 -1,0  M990.18 303.73 L990.18 303.73 978.18 303.73 M984.18 309.73 L984.18 309.73 984.18 297.73" id="h2189936086" class="r"></path><path d="M 869.77 190.72 m -1, 0 a 1,1 0 1,0 2,0 a 1,1 0 1,0 -2,0 M 869.77 190.72 m -0.5, 0 a 0.5,0.5 0 1,0 1,0 a 0.5,0.5 0 1,0 -1,0  M869.77 190.72 L869.77 190.72 881.77 190.72 M 869.77 196.72 m -1, 0 a 1,1 0 1,0 2,0 a 1,1 0 1,0 -2,0 M 869.77 196.72 m -0.5, 0 a 0.5,0.5 0 1,0 1,0 a 0.5,0.5 0 1,0 -1,0  M869.77 196.72 L869.77 196.72 876.77 190.72 869.77 184.72 M 869.77 184.72 m -1, 0 a 1,1 0 1,0 2,0 a 1,1 0 1,0 -2,0 M 869.77 184.72 m -0.5, 0 a 0.5,0.5 0 1,0 1,0 a 0.5,0.5 0 1,0 -1,0  M881.77 190.72 Q 905.87 190.72, 929.97 247.23 T 978.18 303.73 M 990.18 303.73 m -1, 0 a 1,1 0 1,0 2,0 a 1,1 0 1,0 -2,0 M 990.18 303.73 m -0.5, 0 a 0.5,0.5 0 1,0 1,0 a 0.5,0.5 0 1,0 -1,0  M990.18 303.73 L990.18 303.73 978.18 303.73 M984.18 309.73 L984.18 309.73 984.18 297.73" id="h1397587031" class="r"></path><path d="M 701.27 215.72 m -1, 0 a 1,1 0 1,0 2,0 a 1,1 0 1,0 -2,0 M 701.27 215.72 m -0.5, 0 a 0.5,0.5 0 1,0 1,0 a 0.5,0.5 0 1,0 -1,0  M701.27 215.72 L701.27 215.72 689.27 215.72 M 701.27 221.72 m -1, 0 a 1,1 0 1,0 2,0 a 1,1 0 1,0 -2,0 M 701.27 221.72 m -0.5, 0 a 0.5,0.5 0 1,0 1,0 a 0.5,0.5 0 1,0 -1,0  M701.27 221.72 L701.27 221.72 694.27 215.72 701.27 209.72 M 701.27 209.72 m -1, 0 a 1,1 0 1,0 2,0 a 1,1 0 1,0 -2,0 M 701.27 209.72 m -0.5, 0 a 0.5,0.5 0 1,0 1,0 a 0.5,0.5 0 1,0 -1,0  M689.27 215.72 Q 673.7 215.72, 658.12 258.63 T 626.97 301.53999999999996 M 614.97 301.53999999999996 m -1, 0 a 1,1 0 1,0 2,0 a 1,1 0 1,0 -2,0 M 614.97 301.53999999999996 m -0.5, 0 a 0.5,0.5 0 1,0 1,0 a 0.5,0.5 0 1,0 -1,0  M614.97 301.53999999999996 L614.97 301.53999999999996 626.97 301.53999999999996 M620.97 307.53999999999996 L620.97 307.53999999999996 620.97 295.53999999999996" id="h2286254435" class="r"></path></g><g class="hrs"></g><g class="ts"><svg width="179.81" height="100" x="153.90999999999997" y="161.18" id="h311790747" class="t"><rect height="40" width="179.81" class="th"></rect><text x="13" y="25" class="tht">titles</text><rect height="60" width="179.81" class="t-bg"></rect><text x="13" y="61" class="tf pk">title_id<tspan x="166.81" class="ty">VARCHAR(30)</tspan></text><path d="M7,14A2,2 0 0,1 5,12A2,2 0 0,1 7,10A2,2 0 0,1 9,12A2,2 0 0,1 7,14M12.65,10C11.83,7.67 9.61,6 7, 6A6, 6 0 0, 0 1, 12A6, 6 0 0, 0 7, 18C9.61, 18 11.83, 16.33 12.65, 14H17V18H21V14H23V10H12.65Z" class="i pk" transform="translate(67.685, 48) scale(0.65)"></path><text x="13" y="86" class="tf">title<tspan x="166.81" class="ty">VARCHAR(30)</tspan></text></svg><svg width="102.04" height="100" x="209" y="361" id="h2472833127" class="t"><rect height="40" width="102.04" class="th"></rect><text x="13" y="25" class="tht">salaries</text><rect height="60" width="102.04" class="t-bg"></rect><text x="13" y="61" class="tf fk">emp_no<tspan x="89.04" class="ty">int</tspan></text><text x="13" y="86" class="tf">salary<tspan x="89.04" class="ty">int</tspan></text></svg><svg width="168.5" height="100" x="701.27" y="133.72" id="h1676682957" class="t"><rect height="40" width="168.5" class="th"></rect><text x="13" y="25" class="tht">dept_manager</text><rect height="60" width="168.5" class="t-bg"></rect><text x="13" y="61" class="tf fk">dept_no<tspan x="155.5" class="ty">VARCHAR(30)</tspan></text><text x="13" y="86" class="tf fk">emp_no<tspan x="155.5" class="ty">int</tspan></text></svg><svg width="181.15" height="225" x="433.82" y="244.53999999999996" id="h1639608377" class="t"><rect height="40" width="181.15" class="th"></rect><text x="13" y="25" class="tht">employees</text><rect height="185" width="181.15" class="t-bg"></rect><text x="13" y="61" class="tf pk">emp_no<tspan x="168.15" class="ty">int</tspan></text><path d="M7,14A2,2 0 0,1 5,12A2,2 0 0,1 7,10A2,2 0 0,1 9,12A2,2 0 0,1 7,14M12.65,10C11.83,7.67 9.61,6 7, 6A6, 6 0 0, 0 1, 12A6, 6 0 0, 0 7, 18C9.61, 18 11.83, 16.33 12.65, 14H17V18H21V14H23V10H12.65Z" class="i pk" transform="translate(135.476171875, 48) scale(0.65)"></path><text x="13" y="86" class="tf fk">emp_title<tspan x="168.15" class="ty">VARCHAR(30)</tspan></text><text x="13" y="111" class="tf">birthdate<tspan x="168.15" class="ty">date</tspan></text><text x="13" y="136" class="tf">first_name<tspan x="168.15" class="ty">VARCHAR(30)</tspan></text><text x="13" y="161" class="tf">last_name<tspan x="168.15" class="ty">VARCHAR(30)</tspan></text><text x="13" y="186" class="tf">sex<tspan x="168.15" class="ty">VARCHAR(55)</tspan></text><text x="13" y="211" class="tf">hire_date<tspan x="168.15" class="ty">date</tspan></text></svg><svg width="188.5" height="100" x="990.18" y="246.73" id="h475896179" class="t"><rect height="40" width="188.5" class="th"></rect><text x="13" y="25" class="tht">departments</text><rect height="60" width="188.5" class="t-bg"></rect><text x="13" y="61" class="tf pk">dept_no<tspan x="175.5" class="ty">VARCHAR(30)</tspan></text><path d="M7,14A2,2 0 0,1 5,12A2,2 0 0,1 7,10A2,2 0 0,1 9,12A2,2 0 0,1 7,14M12.65,10C11.83,7.67 9.61,6 7, 6A6, 6 0 0, 0 1, 12A6, 6 0 0, 0 7, 18C9.61, 18 11.83, 16.33 12.65, 14H17V18H21V14H23V10H12.65Z" class="i pk" transform="translate(76.375, 48) scale(0.65)"></path><text x="13" y="86" class="tf">dept_name<tspan x="175.5" class="ty">VARCHAR(30)</tspan></text></svg><svg width="168.5" height="100" x="704.72" y="353.63" id="h277813595" class="t"><rect height="40" width="168.5" class="th"></rect><text x="13" y="25" class="tht">dept_employee</text><rect height="60" width="168.5" class="t-bg"></rect><text x="13" y="61" class="tf fk">emp_no<tspan x="155.5" class="ty">int</tspan></text><text x="13" y="86" class="tf fk">dept_no<tspan x="155.5" class="ty">VARCHAR(30)</tspan></text></svg></g></g><text class="qdbd-link" x="10" y="20">www.quickdatabasediagrams.com</text></svg>